/* XPM */
static char * cursor_xpm[] = {
"33 33 256 2",
"  	c None",
". 	c #181413",
"+ 	c #191615",
"@ 	c #1B1716",
"# 	c #1C1817",
"$ 	c #1D1918",
"% 	c #1D1A19",
"& 	c #1E1A19",
"* 	c #1F1B1A",
"= 	c #211D1C",
"- 	c #221E1D",
"; 	c #231F1E",
"> 	c #24201F",
", 	c #252120",
"' 	c #262221",
") 	c #292524",
"! 	c #2A2625",
"~ 	c #2B2726",
"{ 	c #2D2928",
"] 	c #2F2924",
"^ 	c #2D2C26",
"/ 	c #322C26",
"( 	c #342C22",
"_ 	c #352D23",
": 	c #352F2A",
"< 	c #383026",
"[ 	c #37312B",
"} 	c #3D2F27",
"| 	c #38322C",
"1 	c #3B3132",
"2 	c #383433",
"3 	c #393534",
"4 	c #3D3334",
"5 	c #443321",
"6 	c #3A3534",
"7 	c #3C3530",
"8 	c #46341D",
"9 	c #3F3536",
"0 	c #3D3731",
"a 	c #413531",
"b 	c #3C3A2E",
"c 	c #49371B",
"d 	c #433733",
"e 	c #403A34",
"f 	c #493926",
"g 	c #473930",
"h 	c #3F3D31",
"i 	c #423B36",
"j 	c #473B37",
"k 	c #433F2E",
"l 	c #423F33",
"m 	c #493C38",
"n 	c #4C3E35",
"o 	c #47413B",
"p 	c #504133",
"q 	c #4C4339",
"r 	c #4B4635",
"s 	c #544436",
"t 	c #5B462A",
"u 	c #514B34",
"v 	c #644828",
"w 	c #5A4A3C",
"x 	c #594E3E",
"y 	c #695129",
"z 	c #675134",
"A 	c #724F25",
"B 	c #5C563F",
"C 	c #5F563B",
"D 	c #5C5A3C",
"E 	c #6A563D",
"F 	c #675648",
"G 	c #6B5845",
"H 	c #615E41",
"I 	c #6D5940",
"J 	c #655C51",
"K 	c #885A20",
"L 	c #7F6039",
"M 	c #6D6845",
"N 	c #71684C",
"O 	c #806844",
"P 	c #736F4B",
"Q 	c #836C4D",
"R 	c #797249",
"S 	c #A1681A",
"T 	c #7D764D",
"U 	c #81794A",
"V 	c #8A7B47",
"W 	c #8E7757",
"X 	c #A27531",
"Y 	c #887E49",
"Z 	c #887A63",
"` 	c #838357",
" .	c #987D53",
"..	c #C87C00",
"+.	c #968463",
"@.	c #8E8C5A",
"#.	c #94866F",
"$.	c #948B5B",
"%.	c #988C50",
"&.	c #AA844A",
"*.	c #A38863",
"=.	c #CB8508",
"-.	c #D78300",
";.	c #D6820F",
">.	c #A28F6D",
",.	c #A79353",
"'.	c #B6913A",
").	c #B68E4D",
"!.	c #9E985A",
"~.	c #BF933F",
"{.	c #A59A64",
"].	c #E48D00",
"^.	c #A99774",
"/.	c #A9987B",
"(.	c #ED8F0A",
"_.	c #BC9A5D",
":.	c #BA9A63",
"<.	c #ABA35E",
"[.	c #ACA566",
"}.	c #AE9F88",
"|.	c #B1A083",
"1.	c #B0A863",
"2.	c #FD9600",
"3.	c #BFA759",
"4.	c #FF9800",
"5.	c #B6A487",
"6.	c #FD9B00",
"7.	c #C4A46C",
"8.	c #FE9D00",
"9.	c #CDA468",
"0.	c #FF9E00",
"a.	c #C7A66E",
"b.	c #FF9F00",
"c.	c #FFA301",
"d.	c #D2A866",
"e.	c #FFA405",
"f.	c #FFA508",
"g.	c #D2AF4F",
"h.	c #D1AF56",
"i.	c #BFB569",
"j.	c #FFA51B",
"k.	c #FEA81C",
"l.	c #FFAA1E",
"m.	c #FFAB20",
"n.	c #D2B27F",
"o.	c #FEAE21",
"p.	c #DEB169",
"q.	c #FCB222",
"r.	c #F1B535",
"s.	c #F9B136",
"t.	c #FFB12F",
"u.	c #CDC16E",
"v.	c #FFB531",
"w.	c #CBC570",
"x.	c #FEB53B",
"y.	c #F7B649",
"z.	c #D0C471",
"A.	c #FFB63C",
"B.	c #ECBE4A",
"C.	c #FFB73D",
"D.	c #FFB83E",
"E.	c #F9BC3D",
"F.	c #F6BC4C",
"G.	c #FFB946",
"H.	c #FEBB3E",
"I.	c #FFBC3F",
"J.	c #FEBC47",
"K.	c #FDC038",
"L.	c #E4C081",
"M.	c #FFBD48",
"N.	c #F7C248",
"O.	c #F0C356",
"P.	c #DDC870",
"Q.	c #FFBE49",
"R.	c #DBC393",
"S.	c #D9CB71",
"T.	c #FFC24B",
"U.	c #FEC252",
"V.	c #E9CB68",
"W.	c #FFC455",
"X.	c #FEC74E",
"Y.	c #FFC45C",
"Z.	c #DDC8A4",
"`.	c #EBC787",
" +	c #FDC85E",
".+	c #FFC957",
"++	c #FFC765",
"@+	c #DBCBB3",
"#+	c #F1D05F",
"$+	c #EDCF72",
"%+	c #E8CC90",
"&+	c #E5CC9C",
"*+	c #FDCA66",
"=+	c #E9D273",
"-+	c #FDCD59",
";+	c #F4CE6D",
">+	c #FFCB60",
",+	c #FCCE61",
"'+	c #FFCD6F",
")+	c #F2D470",
"!+	c #FFCF72",
"~+	c #FDD171",
"{+	c #F3DA6D",
"]+	c #FDD56D",
"^+	c #FED666",
"/+	c #F2DA74",
"(+	c #FED379",
"_+	c #FDD380",
":+	c #F6D399",
"<+	c #F3D69A",
"[+	c #FED582",
"}+	c #F0D7A7",
"|+	c #FED790",
"1+	c #FFD88B",
"2+	c #FFD992",
"3+	c #FCE174",
"4+	c #FFDA94",
"5+	c #ECDBC3",
"6+	c #FDDC93",
"7+	c #FFDB95",
"8+	c #FEDD94",
"9+	c #FCDD9B",
"0+	c #F3DEBA",
"a+	c #FDDF9C",
"b+	c #FFE09D",
"c+	c #FDE0A3",
"d+	c #FBE0A9",
"e+	c #FEE1A4",
"f+	c #FFE2A5",
"g+	c #FEE2AB",
"h+	c #F6E3C4",
"i+	c #FFE3AC",
"j+	c #FFE4AE",
"k+	c #F9E4BF",
"l+	c #FCE5BA",
"m+	c #FFE5B5",
"n+	c #FFE7B6",
"o+	c #FEE7BC",
"p+	c #FFE8BD",
"q+	c #FFE9BE",
"r+	c #FDEACB",
"s+	c #FFEBC6",
"t+	c #FEEBCC",
"u+	c #FFECC7",
"v+	c #FFEDC8",
"w+	c #FFEDCE",
"x+	c #FFEECF",
"y+	c #FFF0D7",
"z+	c #FEF2D1",
"A+	c #FDF3D8",
"B+	c #FFF3DF",
"C+	c #FEF7E2",
"D+	c #FFF6E9",
"E+	c #FCF8E9",
"F+	c #FBFAF1",
"G+	c #FFFAF3",
"                                2 2                               ",
"                          2 2 6 s n 2                             ",
"                      2 1 9 G /.9.z 2                             ",
"                2 4 m F #.Z.F+G+d.p                               ",
"          2 2 4 x Z }.5+E+G+G+s+&.d                               ",
"      2 2 9 G ^.Z.y+A+B+C+D+D+:+L ~                               ",
"2 6 m F +.R.m+u+k+t+w+y+A+B+B+p.f #                               ",
"9 N _.%+g+m+l+o+p+s+z+w+y+y+l+)./                                 ",
"d @.(+2+c+i+m+m+p+o+s+u+w+w+z+5.: >                               ",
"  x P.~+7+f+c+i+i+i+m+p+p+s+t+r+}.m 1                             ",
"  2 {.]+!+9+f+f+i+i+i+n+p+p+p+s+k+/.q 2                           ",
"  ) C $+*+(+9+7+e+f+i+m+m+n+p+p+u+0+>.j                           ",
"    / <.*+W.(+2+9+b+b+f+i+i+m+l+n+s+l+*.i                         ",
"    , N V.W.Y.'+1+2+7+b+f+i+g+i+n+m+o+}+W j                       ",
"      b i.>+W.U.'+2+2+8+9+b+f+f+i+m+m+m+&+Q 2                     ",
"      , P ~+Q.y.Q.>+_+1+1+6+8+c+e+c+i+m+m+:+E a                   ",
"      $ k z..+U.Q.G.Y.(+1+2+2+2+9+c+c+f+i+m+n.E 0                 ",
"        ! @.]+Q.G.I.A.y.*+_+1+8+2+7+7+c+f+g+d+a.n                 ",
"        % r P.X.Q.I.A.A.v.Q.'+[+1+2+2+7+7+c+i+f+:.n               ",
"          ^ {.^+G.Q.H.A.Q.x.t.U.*+[+1+2+7+7+7+f+:+ .n             ",
"          - H =+Q.Q.H.F.]+X.t.t.t.G.Y._+2+2+2+b+c+`.O 9           ",
"            | [.,+A.H.X u 1.O.A.t.l.m.m.A.*+_+1+2+9+L.I           ",
"            ' M =+Q.H.y ' [ T h.E.t.m.m.j.j.t.Q.*+1+6+7.w         ",
"            % 0 w..+s._ % & ] r ,.W.m.k.l.e.j.j.j.k.x.y.X g       ",
"              > P /+~.)       ; ' B 3.y.o.j.b.j.6.6.4.4.(.K       ",
"              % r z.V =         % , 7 Y g.E.k.b.6.0.b.6.6.;.t     ",
"                ^ T B &             + ~ r V ]+E.j.6.8.6.6.4.S     ",
"                = { {                   % > b ` u.B.v.c.4.4.(.v   ",
"                  ; =                       & = l P @.'.=.;...A   ",
"                                                  @ ] < 5 c 5 }   ",
"                                                          . @     ",
"                                                                  ",
"                                                                  "};
